<?xml version="1.0" encoding="iso-8859-1"?>
<!-- Generator: Adobe Illustrator 19.0.0, SVG Export Plug-In . SVG Version: 6.00 Build 0)  -->
<svg version="1.1" id="Layer_1" xmlns="http://www.w3.org/2000/svg" xmlns:xlink="http://www.w3.org/1999/xlink" x="0px" y="0px"
	 viewBox="0 0 490.655 490.655" style="enable-background:new 0 0 490.655 490.655;" xml:space="preserve">
<g>
	<g>
		<path d="M490.102,188.328c-1.323-3.84-4.693-6.613-8.704-7.147l-154.496-20.48L254.88,16.317c-3.584-7.232-15.509-7.232-19.093,0
			l-72.021,144.384L9.27,181.181c-4.011,0.533-7.403,3.307-8.704,7.147c-1.301,3.84-0.32,8.085,2.56,10.965l113.301,113.301
			L85.558,466.984c-0.789,4.011,0.747,8.085,3.989,10.581c3.243,2.475,7.637,2.88,11.243,1.067l144.555-72.277l144.555,72.277
			c1.515,0.747,3.136,1.131,4.779,1.131c2.283,0,4.587-0.747,6.485-2.197c3.221-2.475,4.779-6.571,3.989-10.581l-30.869-154.389
			l113.301-113.301C490.4,196.434,491.382,192.189,490.102,188.328z"/>
	</g>
</g>
<g>
</g>
<g>
</g>
<g>
</g>
<g>
</g>
<g>
</g>
<g>
</g>
<g>
</g>
<g>
</g>
<g>
</g>
<g>
</g>
<g>
</g>
<g>
</g>
<g>
</g>
<g>
</g>
<g>
</g>
</svg>
