<svg display="none" xmlns="http://www.w3.org/2000/svg">

    <symbol id="person" viewBox="0 0 32 32">
      <path d="M28.36,31h-0.72v-5.237c0-5.419-3.679-10.076-8.946-11.324
        c-0.15-0.036-0.261-0.163-0.275-0.316c-0.015-0.154,0.071-0.3,0.212-0.363c2.34-1.041,3.851-3.365,3.851-5.919
        c0-3.573-2.907-6.48-6.48-6.48c-3.574,0-6.481,2.907-6.481,6.48c0,2.555,1.512,4.878,3.851,5.919
        c0.141,0.063,0.226,0.209,0.212,0.363c-0.014,0.153-0.125,0.281-0.275,0.316c-5.27,1.248-8.949,5.905-8.949,11.324V31H3.64v-5.237
        c0-5.444,3.497-10.164,8.611-11.779c-2.123-1.296-3.452-3.618-3.452-6.144c0-3.97,3.23-7.2,7.201-7.2s7.201,3.23,7.201,7.2
        c0,2.525-1.329,4.847-3.452,6.144c5.114,1.615,8.611,6.334,8.611,11.779V31z M20.255,23.255l-0.51-0.51L15,27.491l-1.746-1.746
        l-0.509,0.51L15,28.509L20.255,23.255z"/>
    </symbol>

    <symbol id="education" viewBox="0 0 32 32">
        <path d="M29.36,31h-0.72c0-3.696-1.827-7.151-4.727-9.447l-3.252,5.627c-0.1,0.175-0.319,0.232-0.491,0.132
          L16,24.906l-4.17,2.405c-0.172,0.102-0.393,0.041-0.491-0.132l-3.25-5.624C5.188,23.851,3.36,27.305,3.36,31H2.64
          c0-5.585,3.931-10.647,9.47-12.365c-2.244-1.353-3.65-3.796-3.65-6.455c0-1.063,0.216-2.086,0.643-3.044L5.36,6.974V15H4.64V6.35
          c0-0.004,0-0.008,0-0.013c0.005-0.133,0.083-0.253,0.203-0.311l11-5.35c0.099-0.049,0.216-0.049,0.314,0l11,5.35
          c0.12,0.058,0.198,0.178,0.202,0.311c0.005,0.133-0.064,0.258-0.18,0.324l-4.283,2.475c0.427,0.958,0.644,1.98,0.644,3.044
          c0,2.657-1.403,5.1-3.643,6.455C25.433,20.353,29.36,25.416,29.36,31z M8.668,21.121l3.113,5.388l4.039-2.33
          c0.111-0.064,0.248-0.064,0.359,0l4.038,2.33l3.115-5.39c-1.325-0.935-2.845-1.636-4.496-2.028c-0.15-0.036-0.261-0.163-0.275-0.317
          c-0.015-0.153,0.07-0.299,0.212-0.362c2.458-1.097,4.046-3.542,4.046-6.231c0-0.992-0.207-1.943-0.616-2.832
          C20.875,9.345,13.827,9.347,9.796,9.35c-0.409,0.889-0.617,1.839-0.617,2.83c0,2.69,1.592,5.136,4.056,6.231
          c0.141,0.062,0.227,0.209,0.212,0.362c-0.014,0.154-0.125,0.281-0.275,0.317C11.518,19.483,9.996,20.186,8.668,21.121z
          M15.883,8.628c3.812,0,5.458,0.006,6.186,0.027V7.261l-0.271-0.152C20.418,6.33,18.701,5.36,16.03,5.36
          c-2.711,0-4.465,0.985-5.875,1.776L9.93,7.261V8.63C12.346,8.629,14.302,8.628,15.883,8.628z M16.03,4.64
          c2.86,0,4.669,1.021,6.123,1.842l0.451,0.252c0.115,0.063,0.187,0.184,0.187,0.315v1.317l3.443-1.989L16,1.4L5.767,6.377l3.443,1.99
          V7.05c0-0.131,0.071-0.252,0.187-0.315l0.406-0.227C11.285,5.676,13.13,4.64,16.03,4.64z"/>
    </symbol>

    <symbol id="skills" viewBox="0 0 32 32">
        <path d="M25.128,31.48c-1.653,0-3.285-0.644-4.505-1.862c-1.697-1.698-2.29-4.224-1.542-6.493L8.874,12.92
          c-2.271,0.747-4.794,0.153-6.491-1.543c-1.904-1.903-2.404-4.813-1.244-7.24c0.05-0.105,0.148-0.18,0.264-0.2
          c0.118-0.018,0.233,0.018,0.315,0.101L5.72,8.04c0.64,0.638,1.68,0.639,2.32,0c0.639-0.64,0.639-1.68,0-2.32L4.038,1.718
          c-0.083-0.083-0.12-0.2-0.101-0.315c0.02-0.115,0.094-0.213,0.2-0.264c2.427-1.161,5.336-0.66,7.239,1.243
          c1.698,1.698,2.292,4.224,1.542,6.494l10.206,10.205c2.271-0.752,4.796-0.156,6.493,1.542c1.902,1.903,2.402,4.812,1.243,7.24
          c-0.051,0.105-0.149,0.18-0.265,0.199c-0.108,0.022-0.231-0.018-0.315-0.1l-4.002-4.002c-0.639-0.639-1.68-0.639-2.318,0
          c-0.64,0.64-0.64,1.68,0,2.318l4.002,4.002c0.082,0.083,0.12,0.2,0.1,0.315s-0.094,0.214-0.199,0.265
          C26.991,31.277,26.057,31.48,25.128,31.48z M8.968,12.146c0.094,0,0.186,0.037,0.254,0.105L19.75,22.775
          c0.1,0.1,0.132,0.248,0.083,0.38c-0.765,2.062-0.255,4.399,1.3,5.953c1.564,1.564,3.896,2.06,5.942,1.305l-3.624-3.624
          c-0.919-0.92-0.919-2.417,0-3.338c0.924-0.918,2.42-0.917,3.338,0l3.624,3.624c0.755-2.047,0.26-4.378-1.305-5.942
          c-1.554-1.555-3.889-2.065-5.953-1.3c-0.132,0.048-0.279,0.017-0.38-0.083L12.25,9.225c-0.1-0.099-0.132-0.248-0.083-0.38
          c0.766-2.062,0.255-4.399-1.299-5.954c-1.564-1.564-3.896-2.06-5.943-1.304l3.624,3.624C8.993,5.655,9.237,6.248,9.237,6.88
          S8.992,8.105,8.548,8.548c-0.888,0.889-2.45,0.888-3.337,0L1.587,4.925c-0.755,2.046-0.26,4.378,1.304,5.943
          c1.554,1.554,3.892,2.064,5.952,1.3C8.884,12.153,8.926,12.146,8.968,12.146z M2.858,31.24c-0.092,0-0.185-0.036-0.254-0.105
          l-1.743-1.743c-0.136-0.136-0.141-0.354-0.012-0.497l2.936-3.229c0.066-0.073,0.159-0.115,0.258-0.118
          c0.077,0,0.193,0.036,0.263,0.105l0.764,0.764l7.476-7.477l0.509,0.51l-7.476,7.477l0.763,0.763c0.07,0.07,0.108,0.165,0.105,0.264
          s-0.045,0.191-0.118,0.258L3.1,31.148C3.032,31.209,2.945,31.24,2.858,31.24z M1.613,29.125l1.257,1.258l2.695-2.451L4.063,26.43
          L1.613,29.125z M21.361,14.518l-0.51-0.509l9.311-9.311c0.384-0.383,0.595-0.892,0.595-1.433s-0.211-1.05-0.595-1.433
          c-0.788-0.788-2.074-0.79-2.864,0l-9.311,9.311l-0.51-0.509l9.311-9.311c1.038-1.038,2.848-1.036,3.884,0
          c0.519,0.519,0.805,1.208,0.805,1.942s-0.286,1.423-0.805,1.942L21.361,14.518z M19.674,12.831l-0.51-0.509l9.282-9.282l0.51,0.509
          L19.674,12.831z"/>
    </symbol>

    <symbol id="other" viewBox="0 0 32 32">
      <path d="M31,31.36H1v-0.72h30V31.36z M31,28.36H1v-0.72h30V28.36z M31,25.36H1v-0.72h30V25.36z
        M31,22.36H1c-0.199,0-0.36-0.161-0.36-0.36V1c0-0.199,0.161-0.36,0.36-0.36h30c0.199,0,0.36,0.161,0.36,0.36v21
        C31.36,22.199,31.199,22.36,31,22.36z M1.36,21.64h29.28V4.36H1.36V21.64z M1.36,3.64h29.28V1.36H1.36V3.64z M29,2.5
        C29,2.776,28.776,3,28.5,3S28,2.776,28,2.5S28.224,2,28.5,2S29,2.224,29,2.5z M26.5,2C26.224,2,26,2.224,26,2.5S26.224,3,26.5,3
        S27,2.776,27,2.5S26.776,2,26.5,2z M24.5,2C24.224,2,24,2.224,24,2.5S24.224,3,24.5,3S25,2.776,25,2.5S24.776,2,24.5,2z M10,14.36H4
        v-0.72h6V14.36z M10,11.36H4v-0.72h6V11.36z M10,8.36H4V7.64h6V8.36z"/>
    </symbol>

    <symbol id="lang" viewBox="0 0 32 32">
      <path d="M22,7.36c-2.167,0-3.36-1.016-3.36-2.86V3h0.721v1.5c0,1.44,0.863,2.14,2.64,2.14
        c1.19,0,2.275-0.152,2.544-1.78h-1.077c-0.646,0-2.36,0-2.36-1.86c0-1.16,0.742-2.36,1.982-2.36c1.526,0,2.238,1.067,2.238,3.36
        c0,0.047-0.001,0.094-0.002,0.14H26.5v0.72h-1.229C24.97,7.041,23.47,7.36,22,7.36z M23.089,1.36c-0.79,0-1.262,0.834-1.262,1.64
        c0,0.853,0.413,1.14,1.64,1.14h1.139c0.001-0.046,0.001-0.093,0.001-0.14C24.606,1.36,23.582,1.36,23.089,1.36z M19.446,21.24
        c1.507-1.094,2.415-2.847,2.415-4.74c0-3.231-2.63-5.86-5.861-5.86s-5.86,2.629-5.86,5.86c0,1.889,0.904,3.637,2.404,4.733
        C8.441,22.626,5.64,26.532,5.64,31h0.72c0-4.414,2.935-8.238,7.137-9.299c0.145-0.036,0.251-0.157,0.27-0.305
        s-0.057-0.291-0.188-0.361c-1.678-0.898-2.72-2.636-2.72-4.535c0-2.834,2.306-5.141,5.141-5.141s5.141,2.306,5.141,5.141
        c0,1.899-1.042,3.636-2.72,4.535c-0.13,0.069-0.205,0.212-0.188,0.358c0.017,0.147,0.121,0.269,0.265,0.307
        c4.205,1.127,7.142,4.951,7.142,9.3h0.721C26.36,26.593,23.555,22.688,19.446,21.24z M13,2.36V1.64h-2.64V0.5H9.64v1.14H7v0.72
        h4.139c-0.003,0.798-0.084,2.257-1.059,3.238c-0.005,0.005-0.012,0.008-0.017,0.013c-0.635-0.535-1.031-1.183-1.182-1.71
        L8.188,4.099C8.36,4.702,8.802,5.434,9.492,6.056C8.849,6.444,8.014,6.64,7,6.64v0.72c1.27,0,2.295-0.296,3.083-0.853
        C10.839,7.005,11.802,7.36,13,7.36V6.64c-0.945,0-1.724-0.247-2.347-0.61c1.11-1.181,1.203-2.795,1.205-3.67
        C11.858,2.36,13,2.36,13,2.36z M1.864,18l0.765-1.64H6.37L7.136,18H7.93l-3.104-6.652H4.174L1.069,18H1.864z M4.5,12.351
        l1.535,3.289h-3.07L4.5,12.351z M30.221,17.64V12c0-0.199-0.161-0.36-0.36-0.36H26.5c-0.199,0-0.36,0.161-0.36,0.36v2
        c0,2.007-0.511,3.64-1.14,3.64h-0.36v0.721v1.14h0.721v-1.14h4.14h0.64v1.14h0.721v-1.86L30.221,17.64L30.221,17.64z M26.1,17.64
        c0.54-0.849,0.76-2.311,0.76-3.64v-1.64h2.64v5.28H26.1z"/>
    </symbol>

    <symbol id="mail" viewBox="0 0 54.1 54.1">
      <path d="M14.241,18.4c3.754,2.568,7.761,4.558,11.872,6.464c6.938-2.519,13.185-5.886,19.438-9.408
        c2.351-1.325,4.713-2.664,7.107-3.993c-2.977-2.531-11.679-1.219-14.154-1.219c-7.089,0.01-14.176,0-21.275-0.01
        c-2.05-0.122-4.19-0.174-6.189,0.01H8.896c-1.436,0.007-3.418-0.117-5.006,0.408c2.233,1.421,4.267,3.08,6.326,4.719
        C11.526,16.413,12.848,17.446,14.241,18.4z"/>
      <path d="M11.406,20.105c-3.33-2.417-6.32-5.187-9.86-7.298c-0.617,1.664-0.282,3.875-0.492,5.422
        c-0.009,0.061,0.011,0.112,0.011,0.163c-0.643,2.744-0.643,5.752-0.715,8.404c-0.073,2.57-0.613,6.271-0.188,9.468
        c-0.039,1.539-0.054,3.155,0.283,4.508c6.607-5.211,13.631-10.385,20.712-14.902C17.772,24.189,14.505,22.354,11.406,20.105z"/>
      <path d="M53.884,20.758c0.112-2.091,0.399-4.383,0.044-6.505c-6.632,3.681-12.99,7.452-19.807,10.593
        c3.883,3.246,7.842,6.352,11.729,9.555c1.641,1.352,3.268,2.725,4.871,4.133c0.581,0.509,1.155,1.027,1.728,1.548
        c0.176-0.348,0.338-0.713,0.465-1.12c0.715-2.251,0.427-4.944,0.251-7.444c0.023-0.549,0.049-1.101,0.075-1.655
        C53.437,26.83,53.725,23.806,53.884,20.758z"/>
      <path d="M31.06,26.188c-1.508,0.635-3.035,1.249-4.607,1.808c-0.579,0.206-1.054,0.062-1.38-0.254
        c-0.244-0.113-0.488-0.229-0.731-0.343c-0.094,0.099-0.197,0.192-0.327,0.273C16.54,32.346,9.06,37.833,2.109,43.331
        c0.608,0.388,1.395,0.623,2.427,0.635c4.545,0.055,9.098,0.021,13.65-0.022C26.056,44.156,33.94,44,41.808,44.185
        c3.041,0.069,6.359-0.134,8.658-1.776c-6.157-5.604-12.762-10.553-19.125-15.911C31.224,26.4,31.137,26.295,31.06,26.188z"/>
    </symbol>

    <symbol id="codewars" viewBox="0 0 32 32">
      <path d="M1.016 16.266l-0.109-0.052c-0.24-0.135-0.427-0.333-0.557-0.589-0.188-0.344-0.271-0.667-0.271-1l0.026-0.172c0-0.266 0.068-0.505 0.188-0.734l0.109-0.198c0.052-0.109 0.13-0.203 0.198-0.292 0.083-0.094 0.094-0.214 0.068-0.323l-0.068-0.214c-0.078-0.266-0.13-0.531-0.13-0.797l-0.042-0.161c0-0.297 0.078-0.589 0.266-0.802l0.135-0.172c0.094-0.135 0.24-0.214 0.401-0.266 0.13-0.042 0.224-0.177 0.24-0.333l0.026-0.453c0-0.359 0.172-0.693 0.438-0.938l0.323-0.24c0.063-0.063 0.13-0.13 0.182-0.24 0.068-0.078 0.083-0.188 0.068-0.266-0.026-0.13 0-0.172 0.068-0.188 0.214 0.083 0.349 0.057 0.443-0.052l0.172-0.224 0.479-0.536c0.135-0.13 0.188-0.375 0.104-0.557l-0.156-0.349c-0.026-0.078 0-0.172 0.068-0.198 0.172 0 0.292 0.063 0.344 0.172l0.052 0.094c0.083 0.161 0.271 0.24 0.401 0.172 0.292-0.104 0.536-0.13 0.76-0.13h0.427c0.292 0 0.531-0.203 0.589-0.51 0.052-0.37 0.182-0.667 0.37-0.865 0.203-0.229 0.427-0.401 0.693-0.536 0.349-0.182 0.563-0.453 0.63-0.797 0.094-0.427 0.318-0.734 0.625-0.932l1.016-0.573 0.292-0.177c0.172-0.104 0.333-0.24 0.469-0.401l0.266-0.318c0.13-0.135 0.266-0.224 0.427-0.266 0.13-0.042 0.318-0.068 0.479-0.052l0.531 0.036c0.266 0 0.479 0.068 0.693 0.161l0.135 0.068c0.135 0.052 0.266 0.026 0.333-0.068l0.12-0.068 0.573-0.599c0.135-0.135 0.292-0.188 0.469-0.161 0.172 0.026 0.344 0.094 0.505 0.177 0.24 0.13 0.438 0.182 0.667 0.182h0.135c0.292 0 0.583 0.042 0.88 0.109l0.198 0.052c0.198 0.052 0.401-0.026 0.531-0.188 0.042-0.068 0.135-0.078 0.188-0.026 0.042 0.026 0.052 0.052 0.068 0.094 0.026 0.266 0.188 0.469 0.401 0.531l0.214 0.068c0.224 0.068 0.427 0.214 0.557 0.401 0.135 0.198 0.297 0.401 0.479 0.531l0.135 0.135c0.135 0.135 0.318 0.188 0.505 0.172h0.786c0.323 0 0.63 0.057 0.938 0.188 0.292 0.135 0.599 0.161 0.875 0.052 0.297-0.089 0.604-0.13 0.911-0.089l0.573 0.089c0.266 0.031 0.531 0.161 0.693 0.365l0.068 0.063c0.13 0.135 0.266 0.307 0.396 0.495 0.083 0.172 0.271 0.266 0.453 0.266h0.828c0.203 0 0.401 0.042 0.563 0.135 0.172 0.13 0.318 0.266 0.453 0.401l0.13 0.172c0.161 0.188 0.24 0.438 0.229 0.708 0 0.214 0.161 0.396 0.37 0.396l0.271 0.031c0.188 0 0.344 0.13 0.438 0.302l0.135 0.271 0.344 0.771c0.057 0.135 0.068 0.266 0.057 0.375 0 0.13 0.036 0.24 0.13 0.292l0.135 0.094c0.172 0.135 0.266 0.333 0.24 0.563l-0.094 0.625-0.026 0.266c-0.026 0.135 0.036 0.307 0.161 0.401 0.198 0.13 0.292 0.307 0.302 0.505v0.266c0 0.135-0.026 0.297-0.13 0.401-0.083 0.109-0.135 0.24-0.135 0.401l0.042 0.307c0 0.214 0.13 0.401 0.266 0.531 0.188 0.135 0.292 0.349 0.323 0.563 0.052 0.333 0.063 0.599 0.063 0.865v0.307c0 0.109 0 0.214 0.042 0.318 0.026 0.094 0.094 0.188 0.172 0.245l0.266 0.198c0.271 0.172 0.458 0.401 0.563 0.708 0.135 0.292 0.172 0.599 0.172 0.906v0.104c0 0.24-0.026 0.495-0.104 0.719-0.068 0.245-0.052 0.469 0.036 0.667 0.109 0.188 0.177 0.401 0.203 0.63 0.052 0.266 0.026 0.531-0.068 0.745l-0.026 0.094c-0.068 0.161-0.172 0.307-0.307 0.427-0.135 0.135-0.266 0.214-0.344 0.307-0.083 0.078-0.135 0.214-0.094 0.333l0.036 0.188c0.068 0.266 0.068 0.531 0 0.771v0.109c-0.052 0.198-0.13 0.37-0.214 0.531-0.094 0.172-0.224 0.307-0.396 0.401l-0.203 0.13c-0.094 0.057-0.161 0.177-0.161 0.297 0 0.13-0.052 0.266-0.13 0.344l-0.203 0.271c-0.13 0.172-0.302 0.318-0.49 0.396-0.188 0.135-0.349 0.271-0.469 0.401-0.135 0.161-0.24 0.349-0.292 0.536-0.052 0.24-0.24 0.37-0.443 0.37h-0.719c-0.188 0-0.359 0.135-0.438 0.297-0.094 0.208-0.188 0.359-0.307 0.49-0.135 0.135-0.214 0.297-0.271 0.479-0.026 0.161-0.156 0.271-0.292 0.214-0.172-0.078-0.344 0-0.427 0.135-0.156 0.266-0.318 0.469-0.49 0.641l-0.094 0.078c-0.177 0.135-0.401 0.24-0.604 0.24-0.24 0-0.359 0.109-0.396 0.266-0.042 0.135-0.068 0.307-0.083 0.458-0.026 0.156-0.078 0.302-0.13 0.438l-0.068 0.078c-0.135 0.203-0.24 0.401-0.375 0.573l-0.052 0.083c-0.172 0.224-0.401 0.401-0.667 0.464-0.323 0.109-0.599 0.135-0.88 0.135h-0.188c-0.13 0-0.266 0.078-0.359 0.214l-0.078 0.135-0.083 0.156-0.172 0.297c-0.135 0.24-0.333 0.396-0.599 0.479-0.266 0.068-0.573 0.094-0.854 0.078l-0.214-0.026c-0.188 0-0.359-0.052-0.531-0.135-0.135-0.052-0.323 0-0.401 0.135-0.135 0.188-0.297 0.292-0.469 0.349l-0.401 0.13c-0.266 0.068-0.557 0.068-0.839 0l-0.214-0.068c-0.13 0-0.266-0.063-0.375-0.13-0.13-0.068-0.266-0.094-0.396-0.083l-0.177 0.031c-0.266 0.026-0.505 0-0.745-0.068l-0.359-0.083c-0.161-0.052-0.307-0.156-0.401-0.307-0.068-0.13-0.214-0.24-0.401-0.266h-0.427c-0.266-0.036-0.505-0.13-0.667-0.333l-0.531-0.505-0.188-0.161-0.292-0.214-0.172-0.13c-0.203-0.135-0.443-0.24-0.698-0.266l-0.797-0.135c-0.083 0-0.135-0.026-0.214-0.042l-0.307-0.068c-0.135-0.026-0.266-0.13-0.359-0.266-0.078-0.13-0.229-0.188-0.359-0.13-0.266 0.104-0.479 0.13-0.693 0.172h-0.188c-0.349 0.026-0.667-0.026-0.99-0.172-0.318-0.135-0.531-0.333-0.729-0.589-0.161-0.229-0.401-0.401-0.698-0.453l-0.37-0.078c-0.266-0.057-0.536-0.161-0.776-0.323-0.266-0.188-0.401-0.359-0.505-0.573-0.104-0.198-0.172-0.427-0.188-0.667v-0.104c-0.026-0.271-0.214-0.51-0.464-0.573-0.307-0.094-0.536-0.229-0.734-0.401-0.188-0.177-0.297-0.427-0.297-0.693l0.031-0.589c0-0.229-0.068-0.427-0.229-0.573-0.161-0.161-0.266-0.359-0.266-0.573l-0.042-0.479c-0.026-0.349-0.094-0.693-0.172-1.042-0.078-0.307 0.042-0.615 0.292-0.76l0.094-0.068c0.135-0.094 0.188-0.266 0.109-0.427l-0.109-0.13c-0.13-0.135-0.266-0.229-0.401-0.266-0.104-0.031-0.13-0.135-0.13-0.203l0.13-0.161c0.083-0.094 0.068-0.24 0-0.318-0.104-0.109-0.156-0.24-0.172-0.375l-0.026-0.932c0-0.188 0.026-0.375 0.078-0.557 0.057-0.161 0-0.349-0.156-0.427zM14.214 14.505c0.094-0.094 0.078-0.266 0-0.333-0.135-0.104-0.229-0.224-0.307-0.359l-0.135-0.214c-0.089-0.172-0.208-0.318-0.344-0.453l-0.026-0.026c-0.135-0.104-0.229-0.24-0.307-0.401-0.068-0.13-0.068-0.266 0-0.401l0.078-0.13c0.083-0.135 0.135-0.323 0.135-0.479v-0.057c0-0.13-0.052-0.266-0.135-0.396-0.052-0.109-0.104-0.24-0.13-0.375v-0.078c-0.042-0.161 0-0.333 0.104-0.469 0.109-0.172 0.188-0.333 0.229-0.531v-0.031c0.052-0.13 0.026-0.302-0.057-0.438-0.078-0.135-0.104-0.266-0.052-0.427l0.094-0.266c0.078-0.24 0.203-0.453 0.359-0.641l0.188-0.198 0.135-0.161 0.078-0.078c0.078-0.083 0.094-0.214 0.026-0.323-0.068-0.135-0.104-0.266-0.078-0.401l0.026-0.188c0.042-0.266 0.135-0.531 0.307-0.745l0.052-0.052c0.198-0.266 0.453-0.443 0.745-0.536l0.365-0.13c0.156-0.052 0.266-0.229 0.266-0.401 0-0.214 0.068-0.401 0.187-0.573l0.063-0.068c0.135-0.224 0.297-0.453 0.401-0.693l0.094-0.172c0.026-0.042 0.042-0.094 0.042-0.135 0-0.224-0.135-0.427-0.349-0.438l-0.583-0.042c-0.333-0.026-0.667 0-0.99 0l-1.13 0.135c-0.177 0-0.307 0.13-0.323 0.318 0 0.188-0.135 0.349-0.292 0.401l-0.479 0.13-0.135 0.042-0.401 0.135c-0.292 0.094-0.531 0.307-0.667 0.599l-0.104 0.172c-0.135 0.297-0.359 0.536-0.641 0.708-0.266 0.172-0.401 0.453-0.427 0.771v0.135c-0.026 0.266-0.109 0.531-0.266 0.719l-0.068 0.109c-0.109 0.13-0.135 0.307-0.068 0.453 0.068 0.156 0.109 0.333 0.094 0.505v0.708c0 0.188-0.135 0.344-0.266 0.396-0.188 0.068-0.307 0.214-0.359 0.401l-0.068 0.266c-0.052 0.271 0.042 0.536 0.266 0.698 0.214 0.156 0.349 0.396 0.401 0.693v0.24c0.042 0.266 0.188 0.531 0.427 0.667 0.24 0.161 0.427 0.401 0.531 0.667l0.068 0.214c0.109 0.292 0.349 0.464 0.615 0.49h0.078c0.24 0 0.453 0.135 0.589 0.349 0.13 0.214 0.344 0.359 0.583 0.401l0.375 0.104c0.229 0.068 0.443 0.188 0.615 0.359l0.026 0.031c0.135 0.104 0.349 0.089 0.469-0.057l0.094-0.104zM15.734 13.281c0.13 0.078 0.266 0.036 0.318-0.083l0.042-0.063c0.094-0.188 0.214-0.375 0.344-0.536l0.271-0.401c0.036 0 0.052-0.026 0.063-0.052l0.323-0.427c0.135-0.13 0.292-0.224 0.479-0.224 0.172 0 0.323-0.094 0.401-0.266 0.052-0.188 0.13-0.365 0.292-0.51l0.068-0.078c0.135-0.135 0.266-0.203 0.401-0.266 0.172-0.026 0.333-0.057 0.495-0.057h0.396c0.161 0 0.297-0.063 0.375-0.198s0.198-0.224 0.333-0.292l0.135-0.057c0.214-0.089 0.453-0.156 0.693-0.182l0.266-0.026c0.161 0 0.333 0 0.495 0.089 0.13 0.094 0.307 0.083 0.438-0.026l0.094-0.052c0.198-0.135 0.427-0.24 0.667-0.266h0.026c0.266-0.052 0.505-0.052 0.776-0.042h0.13c0.266 0.042 0.495 0.135 0.667 0.333l0.042 0.052c0.135 0.135 0.344 0.245 0.531 0.245h0.229c0.068 0 0.13-0.031 0.172-0.094 0.042-0.042 0.109-0.083 0.172-0.083h0.135c0.188 0 0.359 0.052 0.531 0.109l0.229 0.094c0.214 0.063 0.438 0.13 0.667 0.156h0.161c0.104 0 0.172-0.063 0.172-0.156 0-0.135-0.026-0.271-0.094-0.375l-0.094-0.214c-0.104-0.172-0.188-0.359-0.266-0.531l-0.026-0.068c-0.068-0.135-0.068-0.266 0-0.401v-0.068c0.026-0.104-0.026-0.224-0.135-0.266h-0.104c-0.214-0.068-0.401-0.188-0.536-0.359l-0.13-0.135c-0.135-0.13-0.214-0.333-0.271-0.531-0.063-0.172-0.208-0.307-0.396-0.307h-0.563c-0.198-0.026-0.375-0.135-0.495-0.292l-0.052-0.068c-0.094-0.135-0.172-0.292-0.224-0.453-0.068-0.135-0.214-0.214-0.349-0.172l-0.161 0.052c-0.266 0.094-0.531 0.13-0.797 0.104l-0.214-0.026c-0.229 0-0.443-0.094-0.615-0.224l-0.135-0.094c-0.104-0.083-0.208-0.135-0.333-0.188-0.13-0.052-0.24-0.026-0.318 0.068l-0.068 0.078c-0.13 0.135-0.318 0.24-0.505 0.266l-0.719 0.042c-0.135 0-0.266 0.068-0.359 0.161-0.109 0.094-0.229 0.156-0.365 0.182h-0.026c-0.13 0-0.266 0.094-0.396 0.188v0.026c-0.135 0.135-0.307 0.203-0.484 0.203l-0.052 0.026c-0.161 0-0.318 0-0.479 0.042h-0.161c-0.224 0.036-0.401 0.224-0.453 0.464l-0.052 0.307c-0.042 0.214-0.135 0.401-0.266 0.573-0.135 0.161-0.297 0.266-0.495 0.266h-0.224c-0.135 0.031-0.271 0.177-0.245 0.333 0.031 0.229 0 0.427-0.036 0.63l-0.052 0.224c-0.057 0.203-0.188 0.359-0.365 0.427l-0.078 0.042h-0.026c-0.078 0.052-0.135 0.172-0.068 0.266 0.083 0.135 0.109 0.266 0.094 0.401l-0.042 0.427c0 0.156-0.063 0.307-0.13 0.438-0.083 0.135-0.083 0.266-0.026 0.401l0.13 0.292c0.068 0.135 0.083 0.271 0.042 0.427-0.042 0.135-0.068 0.266-0.052 0.401 0 0.135 0.078 0.266 0.188 0.323zM26.266 22.922c0.135 0.13 0.333 0.182 0.495 0.078l0.266-0.172c0.135-0.094 0.24-0.229 0.292-0.401v-0.026l0.135-0.401 0.078-0.135 0.057-0.13 0.052-0.094c0.052-0.109 0.13-0.188 0.266-0.229l0.052-0.026c0.109-0.026 0.177-0.13 0.177-0.24 0-0.13 0.063-0.24 0.13-0.333l0.109-0.094 0.266-0.344v-0.026c0.078-0.109 0.13-0.229 0.161-0.365 0.026-0.13 0-0.266-0.057-0.396l-0.026-0.057c-0.052-0.13-0.078-0.224-0.094-0.344l-0.036-0.375-0.042-0.401c0-0.13 0.052-0.266 0.135-0.396 0.089-0.109 0.156-0.245 0.214-0.375v-0.052l0.026-0.026c0.026-0.135-0.042-0.271-0.161-0.271-0.135-0.063-0.266-0.172-0.307-0.333l-0.042-0.078c-0.063-0.24-0.104-0.479-0.104-0.719l0.026-0.667v-0.042c0-0.224-0.188-0.401-0.401-0.401h-0.026c-0.266 0-0.479-0.078-0.667-0.266l-0.104-0.135-0.271-0.302-0.344-0.401c-0.135-0.188-0.266-0.349-0.443-0.51-0.13-0.13-0.333-0.266-0.531-0.292l-0.266-0.042c-0.135-0.026-0.307-0.089-0.453-0.182-0.109-0.083-0.266-0.057-0.375 0.052l-0.172 0.188-0.083 0.052c-0.094 0.026-0.182-0.026-0.224-0.135-0.052-0.156-0.052-0.344 0.026-0.505v-0.078c0-0.094-0.078-0.161-0.161-0.135h-0.214c-0.24 0-0.479-0.026-0.703-0.13l-0.135-0.057c-0.135-0.068-0.292-0.104-0.438-0.104-0.135 0-0.271 0.026-0.401 0.104l-0.052 0.042c-0.161 0.104-0.349 0.161-0.536 0.172h-0.438c-0.203 0-0.401 0.068-0.536 0.177-0.172 0.104-0.359 0.172-0.557 0.208l-0.359 0.057c-0.161 0.036-0.333 0.104-0.484 0.224-0.13 0.135-0.318 0.214-0.49 0.266l-0.068 0.031c-0.214 0.063-0.401 0.198-0.531 0.396l-0.161 0.161c-0.094 0.135-0.094 0.292 0 0.427 0.078 0.135 0.24 0.172 0.401 0.135l0.198-0.083c0.104-0.036 0.229 0 0.318 0.052 0.083 0.068 0.203 0.109 0.323 0.094l0.333-0.036c0.188 0 0.375 0 0.557 0.052 0.203 0.068 0.375 0.135 0.536 0.266 0.161 0.135 0.333 0.188 0.531 0.214 0.203 0.026 0.401 0.068 0.589 0.135l0.13 0.026c0.135 0.042 0.245 0.13 0.323 0.266 0.068 0.109 0.13 0.266 0.13 0.401v0.042c0 0.156 0.135 0.266 0.271 0.266h0.078c0.214 0 0.443 0.026 0.667 0.094l0.094 0.036c0.135 0.057 0.266 0.135 0.359 0.271 0.109 0.13 0.172 0.266 0.214 0.396l0.042 0.188c0.036 0.203 0.052 0.401 0.052 0.615v0.068c0 0.13 0.094 0.266 0.24 0.318 0.135 0.026 0.292 0.083 0.443 0.161l0.063 0.026c0.177 0.104 0.349 0.24 0.479 0.401l0.068 0.094c0.177 0.198 0.266 0.453 0.266 0.703v0.094c0 0.203-0.036 0.401-0.104 0.589-0.052 0.161 0 0.349 0.172 0.401l0.094 0.068c0.203 0.078 0.375 0.224 0.505 0.396 0.135 0.203 0.188 0.427 0.188 0.667v0.401c-0.026 0.135-0.063 0.24-0.13 0.333s-0.068 0.229 0 0.323l0.078 0.13zM17.734 16.094h-0.026c-0.057 0-0.083 0.068-0.068 0.135l0.052 0.266c0.052 0.214 0.078 0.427 0.109 0.641 0.026 0.214 0.13 0.396 0.292 0.531h0.052c0.203 0.161 0.323 0.401 0.333 0.641v0.667c-0.026 0.13 0 0.266 0.083 0.375l0.063 0.063c0.135 0.161 0.188 0.349 0.203 0.536l0.036 0.734c0 0.172-0.104 0.318-0.266 0.344l-0.13 0.026c-0.094 0-0.135 0.109-0.135 0.203 0 0.104 0.042 0.224 0.078 0.333v0.026c0.042 0.13 0.057 0.266 0.042 0.401l-0.052 0.359c-0.052 0.266-0.135 0.505-0.266 0.745l-0.094 0.161c-0.068 0.13-0.161 0.214-0.271 0.266-0.13 0.052-0.224 0.161-0.266 0.292l-0.104 0.479c-0.068 0.271-0.188 0.536-0.349 0.802h-0.026c-0.161 0.214-0.359 0.401-0.599 0.531l-0.161 0.109-0.401 0.198c-0.13 0.057-0.214 0.177-0.24 0.323l-0.063 0.438c-0.042 0.266-0.135 0.495-0.323 0.667l-0.172 0.203-0.203 0.198-0.198 0.214c-0.161 0.188-0.401 0.266-0.667 0.229l-0.479-0.094-0.443-0.057h-0.12c-0.052 0.057-0.063 0.135-0.026 0.214 0.094 0.161 0.24 0.271 0.401 0.271l0.292 0.052c0.135 0 0.297 0.068 0.427 0.13 0.135 0.094 0.266 0.161 0.427 0.203h0.026c0.177 0.068 0.359 0.078 0.536 0.068l0.198-0.031c0.229-0.026 0.443 0 0.625 0.083l0.161 0.052c0.068 0.026 0.172 0 0.24-0.068 0.083-0.078 0.161-0.13 0.266-0.172l0.109-0.026c0.172-0.052 0.344-0.083 0.531-0.083h0.109c0.156 0 0.307 0.031 0.438 0.109l0.052 0.026c0.094 0.042 0.203 0 0.271-0.078 0.036-0.094 0.13-0.188 0.224-0.266l0.333-0.229 0.214-0.135 0.109-0.063c0.13-0.094 0.318-0.135 0.479-0.135l0.479-0.042c0.188-0.026 0.349-0.156 0.401-0.344 0.052-0.203 0.13-0.401 0.266-0.573 0.135-0.177 0.266-0.323 0.401-0.453 0.172-0.135 0.344-0.203 0.531-0.214h0.109c0.214-0.042 0.37-0.24 0.359-0.453v-0.896c0.026-0.13 0.078-0.307 0.156-0.438l0.271-0.401 0.104-0.135c0.083-0.068 0.135-0.156 0.229-0.266l0.13-0.172c0.083-0.135 0.083-0.307-0.026-0.427-0.13-0.135-0.198-0.323-0.224-0.505v-0.057c-0.026-0.214-0.026-0.438 0.036-0.667v-0.063c0.068-0.177 0.161-0.349 0.271-0.51 0.104-0.13 0.089-0.318-0.042-0.427l-0.229-0.198c-0.188-0.161-0.292-0.401-0.318-0.641l-0.026-0.266c0-0.083 0-0.172-0.026-0.266l-0.026-0.203c-0.031-0.224-0.161-0.401-0.349-0.531l-0.094-0.026c-0.135-0.083-0.266-0.203-0.375-0.359-0.104-0.135-0.156-0.323-0.198-0.51l-0.042-0.224c0-0.083-0.052-0.135-0.13-0.172l-0.641-0.203c-0.135-0.026-0.266-0.13-0.359-0.224h-0.026c-0.083-0.109-0.214-0.109-0.297-0.031l-0.13 0.135c-0.026 0.042-0.057 0.052-0.094 0.042-0.083 0-0.135-0.068-0.109-0.135 0.026-0.214-0.052-0.427-0.224-0.557l-0.177-0.135-0.396-0.266c-0.109-0.042-0.271 0-0.323 0.13l-0.052 0.083c0 0.026-0.042 0.036-0.052 0.052-0.057 0-0.135 0-0.135-0.068l-0.042-0.068c-0.036-0.078-0.13-0.13-0.214-0.156zM16.135 17.427l-0.068-0.068c-0.068-0.052-0.135-0.042-0.203 0.026-0.094 0.161-0.172 0.333-0.214 0.51v0.026c-0.036 0.172-0.198 0.292-0.359 0.266h-0.156c-0.188 0-0.333 0.161-0.333 0.344 0 0.24-0.083 0.484-0.229 0.667l-0.078 0.083c-0.135 0.172-0.333 0.292-0.536 0.359l-0.104 0.026c-0.135 0.042-0.24 0.135-0.266 0.292 0 0.135-0.083 0.271-0.188 0.375l-0.135 0.104c-0.161 0.177-0.401 0.271-0.641 0.297l-0.667 0.068c-0.214 0-0.396 0.13-0.531 0.333-0.135 0.198-0.333 0.333-0.531 0.359l-0.297 0.026c-0.214 0.026-0.438 0.026-0.667-0.026l-0.13-0.026-0.365-0.094c-0.13-0.042-0.24 0-0.318 0.094l-0.135 0.172c-0.172 0.198-0.422 0.292-0.667 0.266l-0.865-0.104c-0.135 0-0.24-0.068-0.359-0.135-0.135-0.078-0.229-0.172-0.323-0.266l-0.333-0.401c-0.036-0.026-0.104-0.042-0.172-0.026l-0.188 0.078-0.745 0.188c-0.135 0.042-0.307 0-0.438-0.078-0.135-0.109-0.297-0.135-0.458-0.135h-0.172c-0.161 0.042-0.266 0.214-0.214 0.375l0.052 0.266c0.042 0.135 0.031 0.292-0.036 0.427s-0.052 0.266 0.036 0.401l0.083 0.104c0.104 0.161 0.266 0.297 0.401 0.427 0.13 0.135 0.266 0.266 0.37 0.443l0.203 0.359c0.104 0.188 0.266 0.292 0.479 0.292 0.198 0 0.401 0.068 0.557 0.198l0.401 0.375c0.109 0.094 0.266 0.109 0.375 0.026l0.068-0.026c0.078 0 0.13 0.052 0.13 0.135v0.068c0 0.172 0.135 0.333 0.307 0.396l0.599 0.135c0.214 0.068 0.427 0.135 0.63 0.266h0.104c0.109 0 0.203-0.094 0.188-0.214v-0.464c0-0.135 0.052-0.271 0.161-0.323l0.068-0.026c0.063 0.026 0.13 0.078 0.104 0.135v0.224c0 0.172 0.052 0.333 0.172 0.453 0.135 0.135 0.307 0.161 0.453 0.109 0.161-0.068 0.323-0.083 0.495-0.068l0.495 0.026c0.24 0.026 0.464 0 0.667-0.094 0.24-0.078 0.438-0.188 0.625-0.333l0.078-0.052 0.401-0.359c0.135-0.135 0.307-0.203 0.469-0.203h0.531c0.266-0.026 0.51-0.266 0.536-0.531l0.052-0.266c0-0.177 0.078-0.333 0.198-0.469 0.135-0.135 0.266-0.214 0.401-0.266l0.161-0.068c0.224-0.094 0.401-0.292 0.479-0.531l0.078-0.323c0.068-0.266 0.203-0.531 0.401-0.703l0.026-0.031c0.161-0.13 0.188-0.396 0.083-0.583l-0.042-0.094c-0.094-0.135-0.109-0.333-0.042-0.505 0.068-0.188 0.135-0.349 0.24-0.51l0.135-0.188c0.052-0.104 0.052-0.266-0.026-0.359-0.083-0.104-0.135-0.24-0.135-0.37l-0.026-0.188v-0.453c0.026-0.135 0-0.307-0.042-0.443l-0.052-0.156zM14.229 16.411v-0.036c0-0.135-0.083-0.214-0.188-0.214h-0.349c-0.13 0.026-0.266 0.026-0.375 0h-0.599c-0.307 0-0.599-0.057-0.891-0.135l-0.323-0.078-0.266-0.083-0.599-0.198c-0.323-0.094-0.563-0.307-0.708-0.599l-0.068-0.135c-0.094-0.198-0.292-0.307-0.49-0.266-0.229 0-0.453 0-0.667-0.104l-0.161-0.068c-0.307-0.135-0.531-0.401-0.531-0.76l-0.057-0.359c-0.036-0.188-0.156-0.359-0.318-0.427-0.188-0.083-0.359-0.188-0.536-0.307l-0.063-0.042c-0.203-0.161-0.375-0.37-0.469-0.625l-0.026-0.078c-0.068-0.214-0.078-0.443-0.026-0.667l0.026-0.083c0.052-0.172 0.068-0.344 0.068-0.531 0-0.161-0.068-0.323-0.188-0.443l-0.188-0.172c-0.214-0.172-0.344-0.427-0.359-0.708-0.026-0.292-0.026-0.573 0.026-0.854v-0.078c0-0.161-0.135-0.266-0.266-0.266h-0.042c-0.172 0-0.318 0.104-0.401 0.266-0.063 0.188-0.172 0.333-0.292 0.479l-0.052 0.068-0.401 0.401c-0.135 0.13-0.214 0.333-0.24 0.531-0.026 0.203-0.078 0.401-0.161 0.589l-0.026 0.068c-0.068 0.156-0.172 0.307-0.307 0.401-0.13 0.104-0.224 0.266-0.224 0.422l-0.026 0.615c0 0.266-0.042 0.536-0.135 0.802l-0.026 0.104c-0.068 0.177 0 0.359 0.161 0.443l0.557 0.24 0.052 0.026c0.042 0 0.057 0.026 0.068 0.068 0.042 0.052 0 0.13-0.042 0.13l-0.13 0.068c-0.078 0.026-0.135 0.109-0.161 0.203l-0.026 0.13v0.026l-0.135 0.75c-0.026 0.104-0.026 0.224-0.026 0.344 0 0.109 0.068 0.203 0.161 0.24l0.292 0.135c0.135 0.078 0.297 0.172 0.401 0.266l0.135 0.109c0.036 0.052 0.104 0.104 0.156 0.13l0.057 0.052c0.094 0.083 0.156 0.188 0.188 0.307l0.13 0.599c0 0.161 0.135 0.297 0.266 0.333l0.214 0.068c0 0 0.042 0 0.068 0.026l0.266 0.083c0.214 0.068 0.401 0.188 0.563 0.344 0.161 0.135 0.318 0.307 0.453 0.495l0.052 0.052c0.109 0.135 0.266 0.203 0.427 0.161s0.333-0.052 0.505-0.052h0.203c0.13 0 0.307 0.036 0.453 0.13 0.13 0.083 0.307 0.135 0.464 0.203h0.042c0.161 0.068 0.333 0.036 0.469-0.052 0.13-0.109 0.307-0.161 0.479-0.161l0.625 0.036c0.135 0 0.266-0.026 0.333-0.13h0.026l0.229-0.214 0.068-0.068c0.104-0.13 0.266-0.188 0.422-0.198h0.604c0.156 0 0.307-0.135 0.37-0.266 0.068-0.135 0.203-0.245 0.359-0.271l0.271-0.052c0.104 0 0.198-0.094 0.24-0.214 0.036-0.13 0.104-0.24 0.198-0.318l0.214-0.214c0.135-0.135 0.203-0.266 0.229-0.427z"/>
    </symbol>

    <symbol id="git" viewBox="0 0 64 64">
        <path d="M32 6C17.641 6 6 17.641 6 32c0 12.277 8.512 22.56 19.955 25.286-.592-.141-1.179-.299-1.755-.479V50.85c0 0-.975.325-2.275.325-3.637 0-5.148-3.245-5.525-4.875-.229-.993-.827-1.934-1.469-2.509-.767-.684-1.126-.686-1.131-.92-.01-.491.658-.471.975-.471 1.625 0 2.857 1.729 3.429 2.623 1.417 2.207 2.938 2.577 3.721 2.577.975 0 1.817-.146 2.397-.426.268-1.888 1.108-3.57 2.478-4.774-6.097-1.219-10.4-4.716-10.4-10.4 0-2.928 1.175-5.619 3.133-7.792C19.333 23.641 19 22.494 19 20.625c0-1.235.086-2.751.65-4.225 0 0 3.708.026 7.205 3.338C28.469 19.268 30.196 19 32 19s3.531.268 5.145.738c3.497-3.312 7.205-3.338 7.205-3.338.567 1.474.65 2.99.65 4.225 0 2.015-.268 3.19-.432 3.697C46.466 26.475 47.6 29.124 47.6 32c0 5.684-4.303 9.181-10.4 10.4 1.628 1.43 2.6 3.513 2.6 5.85v8.557c-.576.181-1.162.338-1.755.479C49.488 54.56 58 44.277 58 32 58 17.641 46.359 6 32 6zM33.813 57.93C33.214 57.972 32.61 58 32 58 32.61 58 33.213 57.971 33.813 57.93zM37.786 57.346c-1.164.265-2.357.451-3.575.554C35.429 57.797 36.622 57.61 37.786 57.346zM32 58c-.61 0-1.214-.028-1.813-.07C30.787 57.971 31.39 58 32 58zM29.788 57.9c-1.217-.103-2.411-.289-3.574-.554C27.378 57.61 28.571 57.797 29.788 57.9z"/>
    </symbol>

    <symbol id="telegram" viewBox="0 0 48 48">
      <path d="M41.4193 7.30899C41.4193 7.30899 45.3046 5.79399 44.9808 9.47328C44.8729 10.9883 43.9016 16.2908 43.1461 22.0262L40.5559 39.0159C40.5559 39.0159 40.3401 41.5048 38.3974 41.9377C36.4547 42.3705 33.5408 40.4227 33.0011 39.9898C32.5694 39.6652 24.9068 34.7955 22.2086 32.4148C21.4531 31.7655 20.5897 30.4669 22.3165 28.9519L33.6487 18.1305C34.9438 16.8319 36.2389 13.8019 30.8426 17.4812L15.7331 27.7616C15.7331 27.7616 14.0063 28.8437 10.7686 27.8698L3.75342 25.7055C3.75342 25.7055 1.16321 24.0823 5.58815 22.459C16.3807 17.3729 29.6555 12.1786 41.4193 7.30899Z"/>
    </symbol>

    <symbol id="phone" viewBox="0 0 42 42">
      <path d="M15.562,20.766c-1.328-1.922-2.118-4.241-2.281-4.438c1.945-1.356,5.749-3.06,5.962-5.505
        C19.514,7.664,14.162,1.06,13.136,1C10.328,1.03,5.189,5.782,4.58,7.218c-1.132,2.969-0.571,5.732,1.375,9.732
        c2.478,5.95,11.682,17.237,16.947,20.78c3.484,2.674,6.029,3.724,9.068,3.09c1.413-0.268,6.516-4.455,7.027-7.286
        c0.125-1.05-5.807-8.011-8.875-8.287c-2.382-0.22-4.666,3.346-6.303,5.089c-0.163-0.208-1.559-1.297-3.057-3.021
        C18.812,25.266,17,22.859,15.562,20.766z"/>
    </symbol>

    <symbol id="star-fill" viewBox="0 0 490.655 490.655">
        <path d="M490.102,188.328c-1.323-3.84-4.693-6.613-8.704-7.147l-154.496-20.48L254.88,16.317c-3.584-7.232-15.509-7.232-19.093,0
        l-72.021,144.384L9.27,181.181c-4.011,0.533-7.403,3.307-8.704,7.147c-1.301,3.84-0.32,8.085,2.56,10.965l113.301,113.301
        L85.558,466.984c-0.789,4.011,0.747,8.085,3.989,10.581c3.243,2.475,7.637,2.88,11.243,1.067l144.555-72.277l144.555,72.277
        c1.515,0.747,3.136,1.131,4.779,1.131c2.283,0,4.587-0.747,6.485-2.197c3.221-2.475,4.779-6.571,3.989-10.581l-30.869-154.389
        l113.301-113.301C490.4,196.434,491.382,192.189,490.102,188.328z"/>
    </symbol>

    <symbol id="star-empty" viewBox="0 0 55.867 55.867">
      <path d="M11.287,54.548c-0.207,0-0.414-0.064-0.588-0.191c-0.308-0.224-0.462-0.603-0.397-0.978l3.091-18.018L0.302,22.602
        c-0.272-0.266-0.37-0.663-0.253-1.024c0.118-0.362,0.431-0.626,0.808-0.681l18.09-2.629l8.091-16.393
        c0.168-0.342,0.516-0.558,0.896-0.558l0,0c0.381,0,0.729,0.216,0.896,0.558l8.09,16.393l18.091,2.629
        c0.377,0.055,0.689,0.318,0.808,0.681c0.117,0.361,0.02,0.759-0.253,1.024L42.475,35.363l3.09,18.017
        c0.064,0.375-0.09,0.754-0.397,0.978c-0.308,0.226-0.717,0.255-1.054,0.076l-16.18-8.506l-16.182,8.506
        C11.606,54.51,11.446,54.548,11.287,54.548z M3.149,22.584l12.016,11.713c0.235,0.229,0.343,0.561,0.287,0.885L12.615,51.72
        l14.854-7.808c0.291-0.154,0.638-0.154,0.931,0l14.852,7.808l-2.836-16.538c-0.056-0.324,0.052-0.655,0.287-0.885l12.016-11.713
        l-16.605-2.413c-0.326-0.047-0.607-0.252-0.753-0.547L27.934,4.578l-7.427,15.047c-0.146,0.295-0.427,0.5-0.753,0.547L3.149,22.584z
        "/>
    </symbol>

    <symbol id="arrow-up" viewBox="0 0 30.021 30.021">
      <path d="M29.069,22.276c-0.791,0.932-1.917,1.409-3.052,1.409c-0.913,0-1.834-0.312-2.587-0.949l-8.42-7.152l-8.42,7.151
        c-1.683,1.43-4.208,1.225-5.639-0.459c-1.43-1.686-1.224-4.208,0.46-5.64l11.01-9.351c1.493-1.269,3.686-1.269,5.178,0
        l11.011,9.351C30.294,18.068,30.499,20.591,29.069,22.276z"/>
    </symbol>
</svg>
